<?xml version="1.0" encoding="UTF-8" standalone="no"?>
<svg
   xmlns:dc="http://purl.org/dc/elements/1.1/"
   xmlns:cc="http://creativecommons.org/ns#"
   xmlns:rdf="http://www.w3.org/1999/02/22-rdf-syntax-ns#"
   xmlns:svg="http://www.w3.org/2000/svg"
   xmlns="http://www.w3.org/2000/svg"
   height="24"
   width="24"
   id="svg6"
   version="1.1"
   viewBox="0 0 24 24">
  <metadata
     id="metadata12">
    <rdf:RDF>
      <cc:Work
         rdf:about="">
        <dc:format>image/svg+xml</dc:format>
        <dc:type
           rdf:resource="http://purl.org/dc/dcmitype/StillImage" />
        <dc:title></dc:title>
      </cc:Work>
    </rdf:RDF>
  </metadata>
  <defs
     id="defs10" />
  <path
     style="stroke-width:0.11999999"
     id="path2"
     d="M 9.8279992,10.068 C 9.1439998,10.068 8.604,10.667999 8.604,11.4 c 0,0.732 0.5519999,1.332 1.2239992,1.332 0.6839998,0 1.2240008,-0.6 1.2240008,-1.332 0.012,-0.732001 -0.540001,-1.332 -1.2240008,-1.332 z m 4.3799998,0 c -0.684,0 -1.223999,0.599999 -1.223999,1.332 0,0.732 0.552,1.332 1.223999,1.332 0.684001,0 1.224001,-0.6 1.224001,-1.332 0,-0.732001 -0.54,-1.332 -1.224001,-1.332 z" />
  <path
     style="stroke-width:0.11999999"
     id="path4"
     d="M 20.04,0 H 3.96 C 2.6039997,0 1.4999998,1.104 1.4999998,2.4720003 V 18.695999 C 1.4999998,20.064 2.6039997,21.168 3.96,21.168 h 13.608 l -0.636,-2.22 1.536,1.428 L 19.92,21.72 22.5,24 V 2.4720003 C 22.5,1.104 21.396,0 20.04,0 Z m -4.632,15.672 c 0,0 -0.432,-0.516001 -0.792,-0.972 1.572,-0.444 2.172,-1.428 2.172,-1.428 -0.492,0.324 -0.96,0.552 -1.38,0.707999 C 14.808,14.232 14.232,14.4 13.668,14.496 12.516,14.712 11.459999,14.652 10.56,14.484 9.8760002,14.352 9.2879996,14.16 8.7959994,13.968 8.5199998,13.860001 8.2200001,13.728001 7.9199993,13.560001 c -0.035998,-0.024 -0.072005,-0.03599 -0.1079994,-0.05999 -0.023998,-0.012 -0.035998,-0.024 -0.047997,-0.03599 C 7.5480031,13.34402 7.4280035,13.26002 7.4280035,13.26002 c 0,0 0.5759994,0.96 2.0999997,1.415999 C 9.1680036,15.13202 8.724003,15.67202 8.724003,15.67202 c -2.6519996,-0.084 -3.6599994,-1.824 -3.6599994,-1.824 0,-3.8639999 1.7279999,-6.996 1.7279999,-6.996 C 8.5200036,5.5560069 10.164004,5.5920074 10.164004,5.5920074 l 0.119999,0.1439998 c -2.1599995,0.6239999 -3.156,1.572 -3.156,1.572 0,0 0.2640002,-0.1439998 0.7079999,-0.3479995 1.2840003,-0.5640001 2.3040001,-0.7200001 2.7240011,-0.7560005 0.072,-0.011999 0.132,-0.023999 0.203999,-0.023999 0.732001,-0.096 1.56,-0.1200005 2.424,-0.023998 1.140001,0.1319997 2.364,0.4679999 3.612001,1.1519997 0,0 -0.948,-0.8999995 -2.988001,-1.5239994 L 13.98,5.5920073 c 0,0 1.644,-0.035998 3.371999,1.26 0,0 1.728001,3.1319999 1.728001,6.9959997 0,0 -1.020001,1.74 -3.672,1.824 z" />
</svg>
